<svg width="888" height="888" viewBox="0 0 888 888" fill="none" xmlns="http://www.w3.org/2000/svg">
<path d="M486.139 351.239L504.131 258.195C504.921 254.103 507.169 250.757 510.167 248.448C509.373 247.844 508.644 247.172 507.728 246.714C505.415 245.515 502.932 245 500.533 245C493.079 245 486.054 250.226 484.511 258.195L466.52 351.239L404.249 365.187L405.432 369.315L486.139 351.239" fill="white"/>
<path d="M349.485 293.833C349.226 292.634 349.055 291.435 349.055 290.236C349.055 285.075 351.689 280.217 355.906 277.049C351.097 273.432 344.478 272.475 338.603 275.413C332.948 278.325 329.435 284.155 329.435 290.236C329.435 291.435 329.606 292.634 329.865 293.833L378.443 508.883V574.942H398.063V508.883L349.485 293.833Z" fill="white"/>
<path d="M545.939 389.194C547.252 387.448 548.864 386.132 550.574 385.021C547.604 383.089 544.23 381.995 540.802 381.995C535.402 381.995 529.921 384.394 526.319 389.194L520.477 396.997L516.811 428.09L545.939 389.194Z" fill="white"/>
<path d="M503.272 508.883L556.736 408.555C559.993 402.559 559.563 395.19 555.536 389.62C554.155 387.679 552.425 386.225 550.574 385.022C548.864 386.132 547.252 387.448 545.939 389.194L516.811 428.09L520.477 396.997L497.191 428.09L516.641 263.162C517.297 257.401 514.717 251.899 510.167 248.448C507.169 250.757 504.921 254.103 504.131 258.195L486.14 351.239L405.432 369.315L404.249 365.187L385.812 369.315L361.906 285.694C360.844 282.069 358.669 279.128 355.906 277.049C351.689 280.217 349.055 285.075 349.055 290.236C349.055 291.435 349.225 292.634 349.485 293.833L398.063 508.883V574.942H481.254V534.588L503.272 508.883Z" fill="white"/>
<path d="M368.675 633.372V590.105C368.675 581.707 375.445 574.941 383.754 574.941H378.443H364.134C355.825 574.941 349.055 581.707 349.055 590.105V633.372C349.055 641.681 355.825 648.45 364.134 648.45H383.754C375.445 648.45 368.675 641.681 368.675 633.372" fill="white"/>
<path d="M497.191 428.09L516.641 263.162C517.411 256.392 513.898 249.797 507.728 246.714C505.415 245.515 502.932 245 500.534 245C493.079 245 486.055 250.226 484.511 258.195L466.52 351.239L385.812 369.315L361.906 285.694C358.993 275.757 347.856 270.786 338.603 275.413C332.948 278.325 329.435 284.155 329.435 290.236C329.435 291.435 329.606 292.634 329.865 293.833L378.443 508.883V574.942H481.254V534.588L503.272 508.883L556.736 408.555C559.993 402.559 559.563 395.19 555.537 389.62C551.939 384.568 546.369 381.995 540.802 381.995C535.402 381.995 529.921 384.394 526.319 389.194L497.191 428.09ZM497.191 428.09L452.555 434.26" stroke="#231F20" stroke-width="9" stroke-miterlimit="10"/>
<path d="M450.412 434.6L442.188 477.182" stroke="#231F20" stroke-width="9" stroke-miterlimit="10"/>
<path d="M385.812 369.315L400.032 422.949C402.774 433.231 412.712 439.83 423.253 438.372L450.412 434.6H450.667C451.352 434.515 451.952 434.345 452.555 434.26C462.319 431.946 469.173 423.034 468.833 413.011L466.52 351.239" stroke="#231F20" stroke-width="9" stroke-miterlimit="10"/>
<rect x="343" y="573" width="169" height="72" rx="16" fill="black" stroke="#231F20" stroke-width="8"/>
<rect x="363" y="577" width="145" height="64" rx="10" fill="black"/>
</svg>
